<svg id="Capa_1" data-name="Capa 1" xmlns="http://www.w3.org/2000/svg" viewBox="0 0 196.42 226.77"><defs><style>.cls-1{fill:#2f2f2f;}</style></defs><title>Sólido</title><path class="cls-1" d="M271.81,218.06a99.64,99.64,0,0,1,52.35,14.77,56.8,56.8,0,0,1,10.07,6.5l46.08-34.52a113.39,113.39,0,0,0-193.63,60.71A100,100,0,0,1,271.81,218.06Z" transform="translate(-185.26 -170.08)"/><path class="cls-1" d="M271.78,218.06a100,100,0,0,0-85.09,47.39,113.5,113.5,0,0,0,24,89.52,86.51,86.51,0,0,0,22.9,3.09,87.54,87.54,0,0,0,10.56-.66,89.11,89.11,0,0,0,11.61-36.89A56.69,56.69,0,0,1,324,232.75,99.5,99.5,0,0,0,271.78,218.06Z" transform="translate(-185.26 -170.08)"/><path class="cls-1" d="M334.24,327.49v.1a56.5,56.5,0,0,1-35.59,12.57,57.13,57.13,0,0,1-10.45-1l0,0A94.8,94.8,0,0,1,278,346.05c-12.65,7.33-21.49,9.6-30.79,11-1.61.17-3.19.51-3.08.32a87.54,87.54,0,0,1-10.56.66A86.59,86.59,0,0,1,210.65,355a113.27,113.27,0,0,0,171,5.6Z" transform="translate(-185.26 -170.08)"/></svg>
